<?xml version="1.0" standalone="no"?>
<!DOCTYPE svg PUBLIC "-//W3C//DTD SVG 20010904//EN"
 "http://www.w3.org/TR/2001/REC-SVG-20010904/DTD/svg10.dtd">
<svg version="1.0" xmlns="http://www.w3.org/2000/svg"
 width="1845.000000pt" height="1845.000000pt" viewBox="0 0 1845.000000 1845.000000"
 preserveAspectRatio="xMidYMid meet">
<metadata>
Created by potrace 1.14, written by Peter Selinger 2001-2017
</metadata>
<g transform="translate(0.000000,1845.000000) scale(0.100000,-0.100000)"
fill="#000000" stroke="none">
<path d="M1709 18446 c-2 -3 -27 -8 -54 -12 -72 -9 -121 -31 -149 -67 -13 -18
-38 -47 -54 -64 -35 -38 -102 -143 -102 -160 0 -7 -13 -39 -30 -71 -27 -53
-49 -132 -94 -342 -29 -137 -33 -184 -42 -470 -3 -113 -7 -234 -9 -270 -12
-221 -19 -461 -20 -635 0 -188 12 -571 20 -660 3 -22 4 -121 3 -220 -4 -579 0
-764 18 -826 2 -9 6 -59 9 -113 2 -53 7 -122 10 -154 3 -31 8 -79 11 -107 18
-177 72 -420 117 -525 24 -56 68 -265 70 -333 1 -34 -2 -118 -6 -187 -4 -69
-9 -194 -12 -278 -3 -109 -9 -161 -20 -182 -8 -16 -15 -40 -15 -54 0 -14 -5
-28 -10 -31 -6 -3 -7 -21 -4 -38 11 -61 12 -97 3 -103 -5 -3 -9 -16 -9 -29 0
-13 -4 -26 -9 -30 -6 -3 -7 -15 -4 -28 3 -12 7 -40 8 -62 1 -22 7 -53 14 -68
6 -16 9 -33 6 -37 -3 -5 3 -24 13 -42 19 -33 25 -138 22 -338 0 -37 7 -77 19
-98 7 -13 10 -26 8 -29 -3 -2 1 -20 9 -39 8 -19 11 -34 8 -34 -4 0 -1 -6 5
-13 6 -8 8 -17 5 -20 -4 -4 1 -18 10 -31 9 -14 16 -34 16 -44 0 -10 4 -22 10
-28 5 -5 11 -18 12 -29 2 -11 11 -31 20 -44 10 -13 15 -28 12 -33 -3 -4 0 -8
5 -8 6 0 11 -7 11 -15 0 -8 5 -15 11 -15 6 0 9 -7 5 -15 -3 -9 3 -20 14 -27
11 -7 20 -18 20 -24 0 -6 9 -19 20 -29 11 -10 18 -20 15 -23 -2 -2 2 -17 11
-33 8 -16 14 -31 14 -34 -1 -21 1 -25 9 -21 5 4 24 -13 43 -36 49 -63 136
-145 169 -159 16 -6 29 -16 29 -21 0 -5 4 -7 9 -4 15 9 23 -28 9 -39 -7 -5
-14 -19 -16 -29 -2 -11 -10 -29 -17 -40 -26 -40 -64 -150 -67 -193 -1 -7 -5
-13 -10 -13 -5 0 -6 -4 -3 -10 3 -5 -2 -21 -11 -35 -9 -14 -14 -28 -10 -32 3
-3 1 -12 -5 -20 -6 -7 -9 -13 -6 -13 4 0 0 -18 -8 -40 -8 -22 -12 -40 -9 -40
2 0 -2 -16 -10 -35 -8 -19 -12 -35 -9 -35 3 0 1 -6 -4 -12 -17 -22 -23 -61
-11 -76 10 -11 8 -17 -9 -30 -11 -10 -26 -35 -33 -57 -7 -22 -19 -58 -26 -80
-7 -22 -16 -53 -19 -70 -8 -40 -13 -60 -15 -60 -1 0 -4 -18 -6 -40 -7 -63 -7
-65 -16 -65 -5 0 -8 -16 -6 -36 1 -21 -3 -39 -11 -43 -10 -6 -11 -14 -3 -26
10 -19 5 -55 -8 -55 -9 0 -5 -54 4 -69 3 -4 2 -22 -3 -38 -5 -18 -5 -37 1 -48
7 -12 7 -20 -2 -25 -7 -4 -14 -32 -15 -64 -2 -31 -8 -62 -14 -70 -8 -9 -8 -16
-2 -20 5 -4 7 -40 4 -89 -3 -45 -5 -110 -4 -145 0 -40 -5 -71 -14 -86 -8 -12
-12 -25 -9 -28 11 -12 15 -68 5 -86 -9 -17 -13 -106 -9 -192 0 -14 -4 -38 -10
-55 -24 -69 -28 -92 -22 -110 4 -11 3 -35 -2 -55 -12 -43 -21 -218 -21 -400 0
-84 -4 -138 -11 -142 -9 -6 -17 -91 -15 -153 0 -11 0 -27 0 -35 0 -8 -3 -73
-7 -145 -3 -71 -6 -143 -6 -160 0 -16 0 -64 0 -105 0 -41 0 -88 0 -105 -1 -16
0 -46 2 -65 2 -19 0 -46 -4 -59 -6 -18 -5 -22 5 -16 9 6 10 3 4 -11 -4 -10 -7
-44 -5 -74 2 -30 3 -65 2 -77 -2 -38 -2 -56 -1 -124 1 -36 -1 -71 -5 -77 -3
-6 -2 -14 4 -17 8 -5 8 -11 1 -19 -6 -7 -9 -15 -7 -17 5 -5 17 -166 21 -289 2
-52 6 -106 9 -119 3 -13 3 -28 -1 -34 -8 -14 -7 -78 2 -100 4 -9 4 -32 1 -50
-3 -19 -3 -37 1 -41 5 -4 9 -22 10 -39 3 -71 13 -184 18 -207 6 -31 22 -131
29 -185 18 -127 32 -195 85 -403 11 -42 30 -120 42 -172 11 -52 27 -115 35
-140 13 -45 15 -54 36 -165 6 -33 17 -69 25 -81 7 -12 20 -48 29 -80 8 -32 22
-69 30 -81 7 -12 14 -29 14 -38 0 -25 55 -148 264 -587 20 -42 36 -81 36 -88
0 -6 11 -36 25 -65 13 -30 32 -77 41 -104 9 -28 20 -51 24 -51 5 0 12 -10 16
-22 4 -13 29 -69 55 -125 27 -56 49 -109 49 -118 0 -17 17 -51 42 -80 9 -11
31 -47 49 -80 17 -33 42 -74 55 -92 13 -17 24 -36 24 -41 0 -5 9 -21 20 -35
12 -14 26 -41 32 -59 6 -18 26 -56 44 -84 18 -28 46 -79 63 -114 17 -34 49
-80 71 -102 22 -22 40 -43 40 -48 0 -5 16 -17 35 -26 19 -9 35 -20 35 -25 0
-5 8 -17 18 -26 68 -66 110 -101 115 -97 5 6 87 -85 87 -97 0 -5 7 -9 15 -9 8
0 29 -12 46 -27 16 -16 46 -41 65 -58 19 -16 53 -47 74 -67 22 -21 40 -35 40
-32 0 3 11 -5 24 -18 37 -36 65 -58 75 -58 4 0 16 -9 27 -21 20 -22 74 -54 74
-43 0 3 15 -9 34 -28 68 -66 93 -88 100 -88 4 0 21 -13 39 -30 18 -16 35 -30
39 -30 9 0 34 -20 89 -72 22 -21 43 -38 48 -38 4 0 25 -16 47 -35 21 -19 44
-35 49 -35 6 0 35 -23 65 -51 69 -65 118 -103 136 -105 13 -2 189 -155 206
-179 4 -5 10 -6 14 -3 4 4 25 -8 47 -27 26 -22 43 -31 47 -24 10 16 19 13 42
-13 11 -13 24 -22 29 -21 5 2 9 -2 9 -7 0 -5 3 -9 8 -8 13 3 62 -25 62 -35 0
-6 3 -7 6 -4 4 4 20 -5 36 -18 16 -14 36 -25 44 -25 8 0 14 -5 14 -11 0 -6 9
-9 20 -6 11 3 20 1 20 -4 0 -5 11 -11 25 -15 14 -3 23 -10 20 -14 -3 -5 4 -11
15 -15 11 -3 20 -10 20 -16 0 -5 16 -16 36 -24 20 -8 44 -24 54 -35 13 -15 20
-16 28 -8 9 9 12 9 12 0 0 -7 6 -12 13 -12 7 0 19 -9 27 -20 8 -11 19 -20 25
-20 5 0 23 -11 39 -25 15 -13 41 -30 57 -37 16 -7 29 -16 29 -20 0 -3 8 -4 18
-1 12 3 30 -7 50 -26 17 -17 33 -31 36 -31 4 0 49 -20 101 -45 52 -24 106 -47
120 -51 14 -3 25 -10 25 -15 0 -5 7 -9 15 -9 8 0 15 -5 15 -11 0 -5 4 -8 9 -4
5 3 16 -1 24 -9 8 -8 17 -12 21 -9 3 3 12 1 19 -5 8 -7 17 -9 20 -5 4 3 7 1 7
-5 0 -7 7 -12 16 -12 8 0 12 -5 9 -10 -6 -9 4 -12 53 -14 9 -1 24 -8 32 -16 8
-8 22 -16 30 -18 8 -2 17 -8 18 -13 2 -5 8 -7 13 -3 5 3 9 0 9 -6 0 -7 7 -10
15 -7 8 4 17 2 20 -4 4 -5 10 -7 15 -4 5 3 15 -2 23 -10 12 -11 17 -12 20 -2
4 9 6 9 6 -1 1 -7 5 -10 11 -7 5 3 10 1 10 -5 0 -6 5 -8 10 -5 6 3 10 2 10 -4
0 -6 13 -9 30 -7 17 2 35 -3 41 -10 6 -8 18 -14 25 -14 8 0 14 -4 14 -10 0 -5
6 -10 14 -10 8 0 17 -6 19 -12 4 -10 6 -10 6 0 1 10 5 10 17 -2 8 -9 20 -14
25 -11 5 4 9 1 9 -6 0 -7 3 -9 7 -6 3 4 17 0 31 -9 17 -11 22 -12 17 -3 -5 8
1 6 12 -4 21 -18 38 -23 29 -8 -4 5 3 7 14 4 11 -3 20 -9 20 -14 0 -5 7 -6 15
-3 8 4 23 0 32 -7 13 -11 15 -11 9 -1 -7 11 -4 11 13 0 12 -7 21 -16 21 -21 0
-4 5 -5 10 -2 6 3 10 1 10 -6 0 -9 3 -9 14 0 12 10 20 10 38 0 13 -8 30 -14
38 -14 8 0 21 -4 28 -9 7 -4 30 -8 50 -8 20 0 43 -5 51 -11 12 -9 13 -9 7 1
-4 6 -2 12 3 12 6 0 11 -6 11 -12 0 -9 4 -8 10 2 8 12 10 12 10 1 0 -11 3 -11
17 0 11 9 14 10 9 2 -5 -9 0 -13 16 -13 43 0 58 -3 58 -14 0 -5 6 -1 14 10 11
14 17 16 27 7 6 -6 18 -9 25 -6 8 3 14 -1 14 -8 0 -7 3 -9 6 -6 4 3 16 2 27
-4 14 -8 18 -8 12 0 -5 8 2 10 22 5 15 -4 33 -7 38 -8 6 0 12 -3 15 -6 13 -13
51 -30 45 -21 -3 6 -2 11 4 11 5 0 13 -5 16 -10 5 -8 12 -7 23 2 13 11 14 11
8 0 -5 -9 -3 -13 5 -11 27 3 40 -1 34 -11 -3 -5 3 -10 15 -10 11 0 23 7 26 15
5 12 9 13 21 3 8 -6 32 -13 54 -14 22 -1 45 -6 52 -11 6 -5 31 -8 55 -8 29 0
42 -4 42 -13 0 -7 5 -10 10 -7 6 4 18 1 27 -7 12 -9 15 -9 9 0 -4 6 -2 12 3
12 6 0 11 -4 11 -8 0 -4 12 -7 28 -6 15 1 33 -3 40 -9 9 -7 11 -5 5 8 -3 10
10 1 31 -21 21 -21 35 -33 31 -26 -8 16 7 16 24 -1 11 -10 13 -9 7 3 -4 8 2 4
13 -9 l21 -23 9 23 c5 13 7 27 4 32 -2 4 3 7 12 7 9 0 13 -4 10 -10 -3 -5 -1
-10 5 -10 6 0 8 -4 5 -10 -3 -5 1 -10 9 -10 10 0 13 -6 9 -17 -4 -11 -3 -14 5
-9 7 4 12 1 12 -9 0 -9 5 -13 10 -10 6 3 10 1 10 -5 0 -6 8 -4 17 5 16 16 18
16 34 -3 9 -12 19 -18 23 -15 3 4 6 2 6 -3 0 -5 12 -11 27 -12 15 -1 31 -8 36
-15 7 -9 10 -9 14 1 7 18 23 15 23 -5 0 -15 2 -14 15 4 10 15 23 20 47 18 18
-2 34 -8 36 -14 2 -6 8 -9 13 -5 5 3 9 -3 9 -13 0 -14 2 -15 9 -4 5 8 14 10
21 6 8 -5 11 -4 7 1 -3 6 -2 16 3 24 7 12 10 12 16 -3 8 -23 23 -21 45 5 18
20 19 20 20 2 0 -10 3 -13 6 -7 5 14 30 4 57 -22 13 -13 15 -13 21 5 6 20 35
29 35 10 0 -5 10 -14 21 -21 17 -9 20 -8 13 3 -6 11 -5 11 9 -1 14 -11 17 -11
17 0 0 10 3 9 12 -2 19 -22 54 -47 44 -31 -4 7 -1 12 8 12 9 0 16 8 17 18 0
10 3 12 6 5 2 -7 11 -13 19 -13 8 0 14 -7 14 -15 0 -30 50 -12 51 19 1 17 2
17 6 3 2 -9 9 -15 14 -12 5 3 6 0 3 -8 -4 -11 8 -14 61 -13 36 0 65 4 65 8 0
4 7 8 16 8 9 0 12 -5 8 -12 -5 -7 -2 -9 8 -5 9 3 21 0 27 -6 9 -9 14 -8 21 3
7 11 10 12 10 2 0 -10 14 -12 59 -8 62 5 105 21 97 35 -8 12 48 0 56 -13 5 -7
8 -6 8 4 0 11 2 12 8 2 5 -7 19 -15 33 -18 33 -9 232 -13 244 -6 15 9 45 10
45 1 0 -4 48 -6 108 -4 139 5 151 7 162 25 9 13 10 13 10 0 0 -13 2 -13 9 -1
8 12 14 13 37 2 23 -10 26 -10 18 1 -5 8 -2 7 6 -2 9 -8 22 -17 30 -19 30 -8
151 -8 156 1 3 4 10 6 15 3 5 -4 12 1 15 10 6 14 8 14 21 -2 8 -10 12 -13 8
-6 -4 9 3 8 21 -2 15 -8 32 -11 38 -7 6 3 22 7 36 8 39 2 40 3 40 21 0 14 3
13 16 -5 19 -28 42 -28 53 0 6 16 10 18 16 9 6 -11 9 -10 16 0 7 11 9 10 9 -3
0 -10 7 -18 15 -18 8 0 15 5 15 11 0 7 12 10 30 7 17 -3 30 -1 30 4 0 4 3 7 8
6 11 -2 46 14 53 25 4 5 10 0 14 -12 7 -22 25 -29 25 -10 0 5 5 7 10 4 6 -3
10 -1 10 5 0 6 4 9 9 5 5 -3 12 -1 15 4 4 6 18 5 35 -2 17 -6 27 -15 24 -21
-3 -5 -1 -6 6 -2 6 4 9 11 6 16 -3 5 -1 11 5 15 5 3 10 2 10 -2 0 -5 9 -14 20
-21 16 -10 26 -9 55 8 41 23 49 25 39 8 -4 -7 -3 -8 4 -4 6 4 21 2 32 -4 13
-7 20 -7 20 -1 0 6 7 8 15 5 8 -4 12 -10 9 -16 -3 -5 3 -4 14 3 12 7 19 16 16
20 -2 4 7 6 20 3 17 -3 32 3 47 18 12 13 18 16 14 8 -6 -12 -5 -13 6 -2 18 16
29 15 29 -4 0 -8 5 -12 10 -9 6 4 7 11 4 17 -4 7 -2 8 4 4 6 -4 18 6 26 22 21
40 43 47 50 16 6 -23 26 -34 26 -14 0 6 7 10 16 10 8 0 12 5 8 11 -4 8 0 8 15
0 20 -11 26 -8 21 14 -1 5 2 7 6 3 4 -4 13 -3 20 3 8 6 20 9 29 6 8 -4 17 -2
19 2 6 9 49 7 66 -4 6 -3 9 -1 8 7 -2 8 6 13 20 12 12 -1 22 2 22 5 0 4 12 6
28 5 15 0 30 4 34 10 5 7 8 6 8 -3 0 -11 3 -11 17 0 14 12 15 12 9 1 -7 -11
-4 -12 13 -3 16 9 21 9 21 -1 1 -10 4 -9 13 2 13 17 47 23 47 9 0 -14 30 -11
46 5 9 10 22 12 41 7 23 -6 95 13 116 30 1 1 11 -2 22 -8 15 -8 27 -8 45 2 21
11 28 11 42 -1 11 -11 18 -12 23 -4 5 8 11 7 23 -2 9 -7 13 -8 10 -3 -5 7 23
12 80 13 48 1 98 5 112 8 14 4 40 8 59 9 18 2 36 7 40 12 3 4 29 9 56 11 46 3
90 8 90 12 0 2 15 5 54 14 14 3 27 9 30 14 3 4 23 8 43 7 21 0 38 3 38 6 0 3
6 6 13 7 54 5 89 12 105 21 11 6 34 13 53 16 19 3 38 10 43 16 6 5 19 9 31 9
11 0 29 6 40 14 11 7 22 13 25 13 16 -4 140 60 140 71 0 7 4 10 10 7 13 -8 93
28 121 54 12 11 27 17 34 15 7 -3 25 2 39 11 14 9 30 14 36 10 5 -3 10 -1 10
5 0 11 62 42 77 38 13 -2 63 14 63 21 0 4 21 13 48 20 26 8 54 19 62 26 8 7
24 11 34 9 31 -5 163 80 218 140 10 10 24 16 33 12 8 -3 15 -1 15 4 0 6 5 10
11 10 5 0 42 24 82 53 40 29 91 62 115 72 23 10 42 22 42 25 0 4 21 21 48 38
92 61 127 85 140 99 7 7 17 13 21 13 4 0 18 8 30 18 11 9 33 26 47 37 14 11
38 31 52 44 15 13 38 29 52 35 22 10 157 101 170 116 16 17 119 100 125 100 3
0 16 10 28 23 12 12 42 38 67 57 25 19 51 40 58 47 7 7 17 13 21 13 5 0 31 21
58 48 27 26 69 60 93 77 55 37 143 106 152 121 4 6 26 24 50 40 67 45 186 155
216 199 14 22 52 69 83 105 31 36 73 90 93 120 20 30 52 75 71 100 18 25 55
79 81 120 26 41 54 86 63 99 57 85 71 108 71 122 0 19 126 276 146 300 13 14
47 77 130 242 18 34 36 67 42 73 6 6 25 38 43 70 18 33 53 93 79 134 26 41 66
111 89 155 23 44 48 91 56 105 47 81 127 238 131 254 2 10 10 26 17 35 16 18
67 125 67 139 0 5 9 21 21 36 11 14 43 83 70 151 27 69 54 133 59 143 5 9 30
73 55 142 25 69 50 134 55 145 5 11 21 58 35 105 15 47 35 110 45 140 11 30
33 118 50 195 17 77 36 160 43 185 6 25 10 49 9 54 -2 4 2 24 9 43 16 49 39
164 35 172 -3 4 2 36 9 71 7 35 11 68 9 72 -3 4 1 17 9 29 10 14 13 29 7 48
-5 17 -3 36 5 50 7 14 11 52 9 93 -1 39 1 81 7 94 5 14 11 70 14 127 3 56 8
118 10 137 3 19 7 100 10 180 2 80 6 157 9 173 2 15 0 30 -5 32 -4 3 -5 18 -2
33 8 34 7 525 -1 687 -6 122 -7 168 -6 195 1 36 -7 100 -12 106 -4 3 -4 13 -1
21 3 8 1 18 -6 22 -8 5 -13 54 -15 147 -2 78 -8 152 -15 169 -8 20 -9 31 -2
33 7 2 8 10 2 20 -4 9 -7 44 -6 77 1 33 -2 71 -7 84 -15 41 -19 89 -9 96 7 4
5 14 -5 30 -9 13 -13 29 -9 35 3 5 2 10 -3 10 -6 0 -8 8 -5 18 2 10 -2 24 -10
30 -10 9 -13 33 -10 101 2 63 -2 99 -12 125 -11 26 -13 46 -6 76 6 29 5 42 -4
50 -13 11 -26 90 -14 90 10 0 8 54 -2 60 -12 8 -18 150 -8 177 5 13 4 23 -2
25 -6 2 -11 28 -12 58 -1 30 -7 60 -12 66 -14 15 -9 142 6 160 7 8 7 14 1 14
-15 0 -32 56 -20 68 7 7 5 18 -6 34 -10 15 -12 28 -6 38 6 10 4 23 -6 38 -8
12 -15 39 -16 60 0 20 -3 42 -7 47 -5 10 -7 17 -16 60 -8 45 -14 65 -25 85 -6
12 -9 27 -7 34 3 6 -1 20 -9 31 -8 10 -14 26 -14 36 0 9 -7 20 -16 23 -11 4
-14 15 -9 42 3 21 1 42 -6 50 -6 8 -9 20 -6 29 4 8 0 20 -7 27 -7 7 -12 23
-11 36 1 12 -2 22 -7 22 -4 0 -7 3 -6 8 3 14 -15 107 -23 117 -4 6 -13 33 -19
60 -15 62 -51 158 -63 166 -5 3 -8 8 -7 10 1 2 -3 17 -9 32 -6 16 -11 32 -11
37 0 5 -5 10 -11 12 -18 6 1 36 32 48 16 7 29 16 29 21 0 5 5 9 11 9 11 0 89
69 118 105 9 10 30 33 48 50 29 28 56 74 58 100 0 11 14 29 52 71 12 13 17 24
11 24 -6 0 -2 10 9 23 25 27 83 144 75 151 -3 4 -1 6 5 6 5 0 9 10 8 23 -1 12
4 27 12 32 8 6 16 28 19 49 2 21 8 44 12 50 3 6 8 22 10 36 2 14 7 29 13 34 5
6 9 27 9 47 0 21 5 41 10 44 7 4 8 11 2 18 -9 11 -8 91 2 150 2 15 1 27 -4 27
-11 0 -7 54 4 62 6 4 6 16 -2 32 -6 14 -8 26 -3 26 10 0 33 47 37 75 4 34 10
54 17 61 4 4 5 22 1 40 -3 18 -2 40 4 49 9 17 2 55 -19 96 -4 9 -5 34 -3 55 8
66 -2 164 -16 164 -16 0 -21 37 -25 199 -3 91 -8 216 -12 276 -10 158 -8 219
11 315 19 96 37 157 71 245 39 99 94 394 110 590 4 44 9 116 10 160 2 44 6 94
9 110 14 78 21 239 19 440 -3 450 -2 551 2 610 26 375 26 761 0 1285 -2 36 -6
160 -9 275 -8 251 -13 318 -32 410 -8 39 -19 95 -25 125 -22 114 -51 217 -80
273 -16 32 -29 64 -29 72 0 19 -77 131 -136 199 -65 74 -100 87 -270 102 -51
5 -90 2 -140 -11 -37 -9 -94 -17 -126 -17 -59 0 -88 -14 -88 -43 0 -13 -19
-19 -94 -31 -55 -8 -81 -19 -124 -53 -20 -16 -48 -32 -62 -36 -14 -4 -55 -25
-91 -46 -36 -21 -72 -39 -80 -39 -8 0 -25 -10 -39 -23 -14 -12 -72 -56 -130
-96 -77 -55 -163 -133 -325 -296 -227 -228 -363 -374 -405 -435 -13 -19 -27
-37 -30 -40 -3 -3 -37 -41 -75 -85 -38 -44 -78 -90 -89 -102 -10 -12 -56 -76
-101 -143 -76 -113 -145 -199 -213 -266 -104 -103 -151 -144 -180 -159 -38
-19 -189 -166 -302 -295 -41 -47 -77 -87 -80 -90 -3 -3 -27 -32 -55 -65 -27
-33 -56 -66 -63 -74 -7 -7 -74 -90 -149 -185 -74 -94 -141 -175 -147 -181 -7
-5 -24 -27 -37 -47 -14 -21 -63 -78 -110 -127 -46 -49 -122 -134 -168 -190
-77 -93 -182 -181 -214 -181 -11 0 -137 -126 -137 -138 -1 -4 -21 -27 -45 -52
-25 -25 -55 -64 -67 -88 -13 -23 -31 -45 -41 -48 -10 -3 -25 -18 -35 -32 -23
-36 -38 -52 -51 -52 -6 0 -11 -5 -11 -10 0 -12 -9 -24 -52 -71 -16 -16 -28
-34 -28 -38 0 -14 -72 -121 -82 -121 -4 0 -16 -16 -25 -35 -11 -24 -24 -35
-38 -35 -12 0 -30 -7 -41 -15 -10 -8 -27 -15 -37 -15 -9 0 -27 -10 -38 -21
-12 -12 -38 -23 -61 -25 -25 -3 -53 -15 -78 -35 -23 -19 -45 -29 -54 -26 -9 4
-16 2 -16 -2 0 -11 -76 -39 -105 -39 -62 -1 -294 -80 -278 -95 3 -4 -3 -10
-13 -14 -10 -4 -37 -19 -59 -34 -43 -28 -83 -41 -127 -40 -19 0 -28 -5 -28
-15 0 -11 -6 -14 -16 -10 -8 3 -24 1 -35 -4 -19 -11 -119 -24 -174 -23 -59 0
-180 15 -190 23 -5 4 -34 15 -64 24 -30 9 -61 25 -69 37 -12 17 -21 19 -53 14
-31 -5 -40 -3 -45 9 -3 9 -14 16 -24 16 -11 0 -22 5 -25 11 -4 6 -13 8 -20 5
-7 -2 -39 2 -72 11 -32 9 -66 16 -76 15 -9 0 -39 9 -65 21 -26 11 -54 22 -62
23 -64 11 -86 18 -109 34 -14 10 -46 21 -71 24 -25 2 -57 9 -72 15 -15 5 -60
13 -100 17 -40 4 -83 10 -94 15 -12 4 -25 5 -28 2 -3 -3 -16 1 -28 9 -27 18
-94 16 -130 -3 -27 -14 -29 -14 -37 0 -4 6 -18 11 -32 11 -13 0 -58 0 -99 -1
-94 -1 -132 -1 -195 2 -74 2 -481 1 -540 -2 -11 -1 -54 -1 -95 0 -119 2 -124
1 -129 -7 -7 -9 -44 -8 -61 3 -19 12 -83 14 -96 3 -7 -5 -23 -11 -35 -13 -13
-3 -35 -7 -49 -10 -14 -2 -50 -7 -80 -10 -30 -3 -71 -10 -90 -15 -19 -6 -55
-13 -80 -16 -25 -3 -58 -15 -74 -26 -16 -12 -48 -23 -70 -26 -23 -2 -67 -15
-99 -28 -32 -14 -63 -24 -70 -23 -7 2 -31 -3 -55 -10 -24 -7 -55 -14 -70 -16
-52 -6 -81 -17 -86 -32 -5 -11 -15 -13 -45 -8 -35 6 -41 4 -56 -19 -9 -13 -24
-24 -33 -24 -9 0 -41 -9 -70 -20 -100 -39 -308 -45 -395 -13 -12 4 -28 6 -34
4 -7 -3 -13 3 -13 12 0 13 -6 16 -24 11 -14 -3 -27 -2 -30 3 -3 5 -17 9 -30 9
-13 0 -45 14 -71 31 -25 17 -48 31 -51 31 -2 0 -13 9 -24 20 -11 11 -27 20
-35 20 -8 0 -15 4 -15 9 0 5 -24 14 -52 21 -29 6 -78 19 -108 28 -30 9 -64 17
-75 18 -52 2 -63 5 -83 25 -12 11 -27 17 -32 14 -6 -3 -29 7 -53 24 -23 16
-59 32 -79 35 -21 3 -47 15 -58 26 -11 11 -24 20 -30 20 -19 0 -25 2 -45 16
-11 8 -29 14 -42 14 -13 0 -24 8 -28 21 -4 12 -20 35 -36 50 -28 28 -56 68
-82 119 -7 14 -23 38 -37 54 -71 81 -108 122 -136 150 -17 17 -38 43 -47 57
-17 29 -143 177 -191 225 -17 18 -51 42 -76 55 -75 40 -106 68 -198 178 -48
58 -123 144 -168 191 -44 47 -93 103 -109 125 -16 22 -32 42 -35 45 -4 3 -58
70 -122 150 -287 362 -590 696 -668 734 -19 10 -60 42 -90 71 -30 29 -69 66
-85 81 -62 60 -143 160 -217 270 -65 97 -214 284 -254 319 -7 6 -28 32 -48 59
-55 73 -171 199 -376 409 -178 182 -260 255 -385 342 -32 22 -66 47 -76 56
-16 16 -50 34 -219 119 -42 21 -82 45 -89 53 -16 20 -69 38 -134 46 -35 4 -53
12 -61 26 -19 34 -39 43 -101 43 -33 0 -84 7 -112 15 -51 14 -184 23 -194 13z"/>
</g>
</svg>
